<svg id="Ebene_1" data-name="Ebene 1" xmlns="http://www.w3.org/2000/svg" xmlns:xlink="http://www.w3.org/1999/xlink" viewBox="0 0 415.77 67.38"><defs><style>.cls-1{fill:none;}.cls-2{clip-path:url(#clip-path);}.cls-3{fill:url(#Unbenannter_Verlauf);}.cls-4{clip-path:url(#clip-path-2);}.cls-5{fill:url(#Unbenannter_Verlauf_2);}.cls-6{clip-path:url(#clip-path-3);}.cls-7{fill:url(#Unbenannter_Verlauf_3);}.cls-8{clip-path:url(#clip-path-4);}.cls-9{fill:url(#Unbenannter_Verlauf_4);}.cls-10{clip-path:url(#clip-path-5);}.cls-11{fill:url(#Unbenannter_Verlauf_5);}.cls-12{clip-path:url(#clip-path-6);}.cls-13{fill:url(#Unbenannter_Verlauf_6);}.cls-14{clip-path:url(#clip-path-7);}.cls-15{fill:url(#Unbenannter_Verlauf_7);}.cls-16{clip-path:url(#clip-path-8);}.cls-17{fill:url(#Unbenannter_Verlauf_8);}.cls-18{clip-path:url(#clip-path-9);}.cls-19{fill:url(#Unbenannter_Verlauf_9);}.cls-20{clip-path:url(#clip-path-10);}.cls-21{fill:url(#Unbenannter_Verlauf_10);}</style><clipPath id="clip-path" transform="translate(-53.68 -63.74)"><path class="cls-1" d="M54,114.58v9.51s.27,4.36,4.58,2.1,8.75-4.51,8.75-4.51,1.24-.73,0-1.39-12.23-6.38-12.23-6.38a1.4,1.4,0,0,0-.47-.09c-.3,0-.64.14-.64.75m14.76-6.7c.08,2.2,0,10.92,0,10.92s-.31,2.33,1.82,1.3,9.19-4.78,10.78-5.6c2.15-1.11,0-2.13,0-2.13L70.6,106.72a2.22,2.22,0,0,0-.92-.25c-.48,0-1,.28-.92,1.4m14.72-7.49c.09,2.2,0,10.92,0,10.92s-.3,2.33,1.82,1.3,9.2-4.78,10.78-5.6c2.15-1.12,0-2.14,0-2.14L85.32,99.23A2.22,2.22,0,0,0,84.4,99c-.48,0-1,.28-.92,1.4M54,100.1c.08,2.2,0,10.92,0,10.92s-.31,2.33,1.82,1.3,9.19-4.78,10.78-5.6c2.15-1.11,0-2.14,0-2.14L55.84,98.94a2.21,2.21,0,0,0-.91-.25c-.48,0-1,.28-.92,1.4m14.77-7.48c.09,2.2,0,10.92,0,10.92s-.31,2.33,1.82,1.3,9.2-4.77,10.78-5.6c2.15-1.11,0-2.14,0-2.14L70.61,91.46a2.22,2.22,0,0,0-.91-.25c-.48,0-1,.27-.92,1.4m29.44-.29V104s-.16,1.71,1.39.92l9-4.64c4.17-2.15,0-4.24,0-4.24l-9-4.68a1.47,1.47,0,0,0-.66-.2c-.8,0-.7,1.21-.7,1.21M54,85C54.11,87.24,54,96,54,96s-.31,2.33,1.82,1.3,9.2-4.78,10.78-5.6c2.15-1.12,0-2.14,0-2.14L55.85,83.88a2.22,2.22,0,0,0-.92-.25c-.48,0-1,.27-.92,1.4m29.47-.3c.09,2.2,0,10.92,0,10.92S83.17,98,85.29,97s9.19-4.77,10.78-5.6c2.15-1.11,0-2.14,0-2.14L85.32,83.58a2.22,2.22,0,0,0-.91-.25c-.48,0-1,.27-.92,1.4M68.76,77.21c.09,2.2,0,10.92,0,10.92s-.31,2.33,1.82,1.3,9.2-4.78,10.78-5.6c2.15-1.11,0-2.14,0-2.14L70.6,76.06a2.22,2.22,0,0,0-.92-.25c-.48,0-1,.28-.92,1.4M54.06,72.07v9.51c0,1.12,1.11.66,1.11.66l12.23-6.39c1.24-.66,0-1.39,0-1.39s-4.44-2.25-8.75-4.5a4.81,4.81,0,0,0-2.17-.65c-2.23,0-2.4,2.75-2.4,2.75"/></clipPath><linearGradient id="Unbenannter_Verlauf" y1="199.85" x2="1" y2="199.85" gradientTransform="matrix(56.47, 0, 0, -56.47, 0.29, 11321.2)" gradientUnits="userSpaceOnUse"><stop offset="0" stop-color="#fbd446"/><stop offset="0.06" stop-color="#fbd446"/><stop offset="1" stop-color="#e2b512"/></linearGradient><clipPath id="clip-path-2" transform="translate(-53.68 -63.74)"><path class="cls-1" d="M140.45,69.51V108.9a26.57,26.57,0,0,1-.4,4.73,11.87,11.87,0,0,1-1.36,3.88,7.17,7.17,0,0,1-2.6,2.63,8.16,8.16,0,0,1-4.2,1,7.55,7.55,0,0,1-5.36-2,9.41,9.41,0,0,1-2.8-5.1l-7.36,2.1a17,17,0,0,0,24,10.27,14.05,14.05,0,0,0,4.92-4.69,18,18,0,0,0,2.4-6.15,33.29,33.29,0,0,0,.64-6.31V69.51Z"/></clipPath><linearGradient id="Unbenannter_Verlauf_2" y1="199.86" x2="1" y2="199.86" gradientTransform="matrix(0, 424.84, 424.84, 0, -84775.83, 94.11)" gradientUnits="userSpaceOnUse"><stop offset="0" stop-color="#e2b512"/><stop offset="0.5" stop-color="#fbd446"/><stop offset="1" stop-color="#e2b512"/></linearGradient><clipPath id="clip-path-3" transform="translate(-53.68 -63.74)"><path class="cls-1" d="M182.31,88.44v20.38q0,5.74-2.8,9.18a9,9,0,0,1-7.36,3.44,8.54,8.54,0,0,1-4.32-1,7.17,7.17,0,0,1-2.64-2.59,10.83,10.83,0,0,1-1.32-3.76,27.4,27.4,0,0,1-.36-4.49V88.44H156v23.77a21.29,21.29,0,0,0,.84,6.07,14.36,14.36,0,0,0,2.56,5,11.73,11.73,0,0,0,4.4,3.36,15.34,15.34,0,0,0,6.36,1.21,13.89,13.89,0,0,0,7.56-2.14,12.43,12.43,0,0,0,4.84-5.22h.16c0,.81,0,1.82.08,3s.13,2.31.24,3.28h7.12c-.11-1.24-.19-2.67-.24-4.29s-.08-2.94-.08-4V88.44Z"/></clipPath><linearGradient id="Unbenannter_Verlauf_3" y1="199.86" y2="199.86" gradientTransform="matrix(0, 425.14, 425.14, 0, -84796, 62.18)" xlink:href="#Unbenannter_Verlauf_2"/><clipPath id="clip-path-4" transform="translate(-53.68 -63.74)"><path class="cls-1" d="M205.55,88.07a14.22,14.22,0,0,0-4.56,2.1,10.88,10.88,0,0,0-3.24,3.64,10.69,10.69,0,0,0-1.24,5.3,9.2,9.2,0,0,0,1,4.49,9.51,9.51,0,0,0,2.6,3,12.93,12.93,0,0,0,3.56,1.9q2,.69,3.88,1.17a33.71,33.71,0,0,1,7.4,2.43,4.2,4.2,0,0,1,2.52,4,5.05,5.05,0,0,1-.64,2.67,4.94,4.94,0,0,1-1.72,1.7,7.76,7.76,0,0,1-2.4.93,12.91,12.91,0,0,1-2.76.29,11.64,11.64,0,0,1-5.88-1.54,12.27,12.27,0,0,1-4.2-3.8l-5.36,4.61a16.51,16.51,0,0,0,6.84,5.18,22,22,0,0,0,8.44,1.7,24.18,24.18,0,0,0,5.6-.65,13.76,13.76,0,0,0,4.84-2.14,11.19,11.19,0,0,0,3.4-3.84,11.85,11.85,0,0,0,1.28-5.74,9.44,9.44,0,0,0-1-4.37,9.6,9.6,0,0,0-2.68-3.19,15.83,15.83,0,0,0-4-2.22,40.09,40.09,0,0,0-5-1.54,26.26,26.26,0,0,1-6.48-2.14,3.84,3.84,0,0,1-2.16-3.6,4.18,4.18,0,0,1,.6-2.31,4.9,4.9,0,0,1,1.6-1.54,7.57,7.57,0,0,1,2.28-.89,11.93,11.93,0,0,1,2.56-.28,10.24,10.24,0,0,1,5.2,1.33,9.89,9.89,0,0,1,3.6,3.44l5.2-4.45A13.09,13.09,0,0,0,218.71,89a20,20,0,0,0-7.88-1.62,20.36,20.36,0,0,0-5.28.69"/></clipPath><linearGradient id="Unbenannter_Verlauf_4" y1="199.86" y2="199.86" gradientTransform="matrix(0, 424.82, 424.82, 0, -84695.09, 25.15)" xlink:href="#Unbenannter_Verlauf_2"/><clipPath id="clip-path-5" transform="translate(-53.68 -63.74)"><path class="cls-1" d="M234.45,77.44v11h-7.28v6.23h7.28v20.78q0,6,2.84,9t8.2,3a20.15,20.15,0,0,0,3.4-.28,18.87,18.87,0,0,0,3-.77l-.24-6.23a9.15,9.15,0,0,1-2.16.67,12.22,12.22,0,0,1-2.24.22,5.09,5.09,0,0,1-4.08-1.49q-1.28-1.49-1.28-5V94.66H252V88.44H241.9v-11Z"/></clipPath><linearGradient id="Unbenannter_Verlauf_5" y1="199.86" y2="199.86" gradientTransform="matrix(0, 425.23, 425.23, 0, -84746, -9.69)" xlink:href="#Unbenannter_Verlauf_2"/><clipPath id="clip-path-6" transform="translate(-53.68 -63.74)"><polygon class="cls-1" points="321.1 69.52 308.62 115.12 308.46 115.12 295.26 69.52 286.54 69.52 273.26 115.12 273.1 115.12 260.62 69.52 252.06 69.52 268.7 126.77 276.94 126.77 290.7 80.76 290.86 80.76 304.62 126.77 312.86 126.77 329.5 69.52 321.1 69.52"/></clipPath><linearGradient id="Unbenannter_Verlauf_6" y1="199.86" y2="199.86" gradientTransform="matrix(0, 424.86, 424.86, 0, -84621.33, -64.77)" xlink:href="#Unbenannter_Verlauf_2"/><clipPath id="clip-path-7" transform="translate(-53.68 -63.74)"><path class="cls-1" d="M339.46,121.47a7.22,7.22,0,0,1-2.48-1,5.65,5.65,0,0,1-1.8-1.86,5.42,5.42,0,0,1-.68-2.83,5,5,0,0,1,1.6-3.88,10.24,10.24,0,0,1,4-2.18,26.44,26.44,0,0,1,5.44-1q3-.24,5.8-.24h1.84v2a11.66,11.66,0,0,1-2.84,8q-2.84,3.2-8.12,3.19a13.73,13.73,0,0,1-2.8-.28M335.9,88.92a20.11,20.11,0,0,0-6.84,4.2l4,4.85a15.24,15.24,0,0,1,4.76-3.19,14.82,14.82,0,0,1,6-1.25,10.52,10.52,0,0,1,6.8,2.06q2.56,2.06,2.56,6.35V103q-4.8,0-9.52.4a34,34,0,0,0-8.48,1.74,14.68,14.68,0,0,0-6.08,3.88,9.86,9.86,0,0,0-2.32,6.91,10.92,10.92,0,0,0,1.32,5.58,11.17,11.17,0,0,0,3.32,3.64,13.55,13.55,0,0,0,4.44,2,19.5,19.5,0,0,0,4.68.6,15.61,15.61,0,0,0,7.48-1.7,14.63,14.63,0,0,0,5.24-4.77h.24a24,24,0,0,0,.64,5.5H361a20.88,20.88,0,0,1-.44-3.52c-.08-1.43-.12-2.79-.12-4.08V102.43a17.76,17.76,0,0,0-1-5.9,13.1,13.1,0,0,0-2.88-4.77,13.4,13.4,0,0,0-4.92-3.19,19.45,19.45,0,0,0-7.08-1.17,24.24,24.24,0,0,0-8.68,1.54"/></clipPath><linearGradient id="Unbenannter_Verlauf_7" y1="199.86" y2="199.86" gradientTransform="matrix(0, 424.96, 424.96, 0, -84587.82, -108.94)" xlink:href="#Unbenannter_Verlauf_2"/><clipPath id="clip-path-8" transform="translate(-53.68 -63.74)"><path class="cls-1" d="M371.22,77.44v11h-7.28v6.23h7.28v20.78q0,6,2.84,9t8.2,3a20.15,20.15,0,0,0,3.4-.28,18.8,18.8,0,0,0,3-.77l-.24-6.23a9.11,9.11,0,0,1-2.16.67A12.19,12.19,0,0,1,384,121a5.09,5.09,0,0,1-4.08-1.49q-1.28-1.49-1.28-5V94.66h10.08V88.44H378.66v-11Z"/></clipPath><linearGradient id="Unbenannter_Verlauf_8" y1="199.86" y2="199.86" gradientTransform="matrix(0, 425.22, 425.22, 0, -84607.3, -146.34)" xlink:href="#Unbenannter_Verlauf_2"/><clipPath id="clip-path-9" transform="translate(-53.68 -63.74)"><path class="cls-1" d="M404.22,88.84a18.6,18.6,0,0,0-10.68,10.51A21.65,21.65,0,0,0,392,107.6a21.36,21.36,0,0,0,1.56,8.33,18.84,18.84,0,0,0,4.28,6.35,19.3,19.3,0,0,0,6.44,4.09,22.15,22.15,0,0,0,8.12,1.45,20.15,20.15,0,0,0,8.16-1.58,16.31,16.31,0,0,0,6-4.41l-5-4.61a10.76,10.76,0,0,1-3.88,3.07,12.06,12.06,0,0,1-14.44-3,13.38,13.38,0,0,1-2.44-4.41,16.9,16.9,0,0,1,0-10.51,13.4,13.4,0,0,1,2.44-4.41,12,12,0,0,1,3.88-3,11.64,11.64,0,0,1,5.24-1.13A10.93,10.93,0,0,1,417.46,95a9.22,9.22,0,0,1,3.6,3.11l5.44-4.45A14.58,14.58,0,0,0,420.22,89a20.91,20.91,0,0,0-8-1.62,21.93,21.93,0,0,0-8,1.45"/></clipPath><linearGradient id="Unbenannter_Verlauf_9" y1="199.86" y2="199.86" gradientTransform="matrix(0, 424.96, 424.96, 0, -84523.11, -174.2)" xlink:href="#Unbenannter_Verlauf_2"/><clipPath id="clip-path-10" transform="translate(-53.68 -63.74)"><path class="cls-1" d="M432.18,65.63v61.14h7.52V106.42q0-5.76,2.88-9.2a9.16,9.16,0,0,1,7.36-3.45,8.32,8.32,0,0,1,4.28,1,7.32,7.32,0,0,1,2.6,2.6,10.87,10.87,0,0,1,1.32,3.73,26.67,26.67,0,0,1,.36,4.46v21.24H466V103a21.33,21.33,0,0,0-.84-6.07,13.66,13.66,0,0,0-2.6-4.93,12.87,12.87,0,0,0-4.4-3.36,14.66,14.66,0,0,0-6.32-1.25,13.75,13.75,0,0,0-7.36,2,11.81,11.81,0,0,0-4.64,4.85h-.16V65.63Z"/></clipPath><linearGradient id="Unbenannter_Verlauf_10" y1="199.86" y2="199.86" gradientTransform="matrix(0, 425.26, 425.26, 0, -84543.98, -224.95)" xlink:href="#Unbenannter_Verlauf_2"/></defs><title>JW_Logo_color</title><g class="cls-2"><rect class="cls-3" y="5.58" width="59.08" height="59.13"/></g><g class="cls-4"><rect class="cls-5" x="102.16" y="81.25" width="60.41" height="35.25" transform="translate(-27.46 161.74) rotate(-86.78)"/></g><g class="cls-6"><rect class="cls-7" x="152.45" y="89.97" width="41.24" height="36.32" transform="translate(1.71 211.12) rotate(-86.78)"/></g><g class="cls-8"><rect class="cls-9" x="188.67" y="91.29" width="42.08" height="32.62" transform="translate(36.82 247.21) rotate(-86.78)"/></g><g class="cls-10"><rect class="cls-11" x="213.93" y="88.64" width="51.29" height="27.57" transform="translate(70.18 272.14) rotate(-86.78)"/></g><g class="cls-12"><rect class="cls-13" x="260.02" y="57.87" width="61.51" height="80.54" transform="translate(122.78 319.22) rotate(-86.78)"/></g><g class="cls-14"><rect class="cls-15" x="322.79" y="89.37" width="42.21" height="36.38" transform="translate(163.52 381.14) rotate(-86.78)"/></g><g class="cls-16"><rect class="cls-17" x="350.69" y="88.64" width="51.29" height="27.57" transform="translate(199.26 408.69) rotate(-86.78)"/></g><g class="cls-18"><rect class="cls-19" x="388.15" y="89.21" width="42.31" height="36.78" transform="translate(225.21 446.48) rotate(-86.78)"/></g><g class="cls-20"><rect class="cls-21" x="417.63" y="77.59" width="62.94" height="37.22" transform="translate(274.16 475.46) rotate(-86.78)"/></g></svg>